<svg width="10" height="10" viewBox="0 0 10 10" fill="none" xmlns="http://www.w3.org/2000/svg">
<path d="M9.446 4.412C9.41 4.316 9.356 4.232 9.284 4.16L5.54 0.416C5.396 0.272 5.216 0.2 5 0.2C4.796 0.188 4.616 0.26 4.46 0.416C4.316 0.56 4.244 0.739999 4.244 0.955999C4.244 1.16 4.316 1.334 4.46 1.478L6.944 3.944H1.256C1.052 3.944 0.872 4.022 0.716 4.178C0.572 4.322 0.5 4.496 0.5 4.7C0.5 4.904 0.572 5.084 0.716 5.24C0.872 5.384 1.052 5.456 1.256 5.456H6.944L4.46 7.922C4.316 8.066 4.244 8.246 4.244 8.462C4.244 8.666 4.316 8.846 4.46 9.002C4.604 9.146 4.784 9.218 5 9.218C5.216 9.218 5.396 9.14 5.54 8.984L9.284 5.24C9.356 5.168 9.41 5.084 9.446 4.988C9.53 4.796 9.53 4.604 9.446 4.412Z" fill="#08182E"/>
</svg>
