<svg width="325" height="64" viewBox="0 0 325 64" fill="none" xmlns="http://www.w3.org/2000/svg">
<g filter="url(#filter0_d_1_193)">
<path d="M4 44.0615L31.4462 0.984614H45.7231L55.9385 44.0615H41.4769L34.5231 7.69231H40.1846L19.3231 44.0615H4ZM16.6769 36.5538L22.4615 26.0923H42.2769L43.8769 36.5538H16.6769Z" fill="#08182E"/>
<path d="M65.4466 44.0615L71.7851 12.2462H59.1697L61.4466 0.984614H101.2L98.9236 12.2462H86.3082L79.9697 44.0615H65.4466Z" fill="#08182E"/>
<path d="M105.955 36.7385C104.15 36.7385 102.509 36.3282 101.032 35.5077C99.5548 34.6872 98.3856 33.5795 97.524 32.1846C96.7035 30.7487 96.2933 29.1282 96.2933 27.3231C96.2933 25.1897 96.7651 23.3026 97.7087 21.6615C98.6523 20.0205 99.9446 18.7487 101.586 17.8462C103.227 16.9026 105.073 16.4308 107.124 16.4308C108.929 16.4308 110.55 16.841 111.986 17.6615C113.421 18.441 114.57 19.5282 115.432 20.9231C116.293 22.3179 116.724 23.9179 116.724 25.7231C116.724 27.8564 116.232 29.7641 115.247 31.4462C114.304 33.0872 113.011 34.3795 111.37 35.3231C109.77 36.2667 107.965 36.7385 105.955 36.7385Z" fill="#08182E"/>
<path d="M143.626 45.0462C139.195 45.0462 135.318 44.2462 131.995 42.6462C128.672 41.0051 126.088 38.7487 124.241 35.8769C122.436 32.9641 121.534 29.6 121.534 25.7846C121.534 22.0103 122.19 18.5436 123.503 15.3846C124.857 12.2256 126.764 9.49743 129.226 7.2C131.688 4.90256 134.6 3.13846 137.964 1.90769C141.37 0.635896 145.123 0 149.226 0C153.739 0 157.616 0.717949 160.857 2.15384C164.139 3.54872 166.785 5.64103 168.795 8.43077L158.395 16.4923C157 14.6872 155.523 13.4564 153.964 12.8C152.405 12.1026 150.6 11.7538 148.549 11.7538C146.662 11.7538 144.959 12.0821 143.441 12.7385C141.923 13.3538 140.611 14.2564 139.503 15.4462C138.436 16.5949 137.616 17.9692 137.041 19.5692C136.467 21.1692 136.18 22.9333 136.18 24.8615C136.18 26.5436 136.549 28.0205 137.288 29.2923C138.067 30.5641 139.154 31.5487 140.549 32.2462C141.985 32.9436 143.688 33.2923 145.657 33.2923C147.298 33.2923 148.939 33.0256 150.58 32.4923C152.221 31.918 153.903 30.9538 155.626 29.6L161.103 39.9385C158.846 41.5795 156.221 42.8513 153.226 43.7539C150.231 44.6154 147.031 45.0462 143.626 45.0462ZM148.918 37.7231L152.18 21.3538H164.795L161.103 39.9385L148.918 37.7231Z" fill="#08182E"/>
<path d="M165.999 44.0615L172.706 10.4H185.814L183.906 19.9385L182.614 17.2308C184.009 14.5641 185.937 12.6564 188.399 11.5077C190.901 10.359 193.752 9.78461 196.952 9.78461L194.491 22.0923C193.917 22.0103 193.383 21.9487 192.891 21.9077C192.44 21.8667 191.968 21.8462 191.475 21.8462C189.178 21.8462 187.311 22.359 185.875 23.3846C184.481 24.4103 183.537 26.1128 183.045 28.4923L179.906 44.0615H165.999Z" fill="#08182E"/>
<path d="M213.517 44.6769C209.825 44.6769 206.604 44.041 203.855 42.7692C201.107 41.4564 198.973 39.6308 197.455 37.2923C195.978 34.9538 195.24 32.2256 195.24 29.1077C195.24 25.4154 196.142 22.1128 197.948 19.2C199.753 16.2872 202.235 13.9897 205.394 12.3077C208.553 10.6256 212.163 9.78461 216.225 9.78461C219.958 9.78461 223.178 10.441 225.886 11.7538C228.635 13.0256 230.748 14.8308 232.225 17.1692C233.742 19.4667 234.501 22.1949 234.501 25.3538C234.501 29.0462 233.599 32.3487 231.794 35.2615C229.989 38.1744 227.507 40.4718 224.348 42.1538C221.23 43.8359 217.619 44.6769 213.517 44.6769ZM214.317 33.8462C215.548 33.8462 216.614 33.5385 217.517 32.9231C218.419 32.2667 219.117 31.3641 219.609 30.2154C220.142 29.0256 220.409 27.6308 220.409 26.0308C220.409 24.5949 219.978 23.3436 219.117 22.2769C218.255 21.1692 217.025 20.6154 215.425 20.6154C214.235 20.6154 213.168 20.9436 212.225 21.6C211.322 22.2154 210.604 23.1179 210.071 24.3077C209.578 25.4564 209.332 26.8308 209.332 28.4308C209.332 30.0308 209.763 31.3436 210.625 32.3692C211.527 33.3538 212.758 33.8462 214.317 33.8462Z" fill="#08182E"/>
<path d="M249.811 44.6769C247.103 44.6769 244.744 44.1026 242.734 42.9538C240.765 41.7641 239.35 40.0205 238.488 37.7231C237.667 35.3846 237.606 32.4718 238.303 28.9846L241.996 10.4H255.903L252.519 27.3231C252.15 29.1692 252.232 30.5846 252.765 31.5692C253.298 32.5128 254.262 32.9846 255.657 32.9846C257.216 32.9846 258.509 32.4718 259.534 31.4462C260.601 30.3795 261.339 28.759 261.75 26.5846L265.011 10.4H278.919L272.211 44.0615H259.103L261.011 34.6462L262.611 37.2308C261.011 39.8154 259.042 41.7026 256.703 42.8923C254.406 44.0821 252.109 44.6769 249.811 44.6769Z" fill="#08182E"/>
<path d="M302.564 44.6769C299.98 44.6769 297.703 44.1436 295.734 43.0769C293.805 42.0103 292.411 40.2051 291.549 37.6615C290.729 35.118 290.667 31.6513 291.364 27.2615C291.98 23.6103 292.964 20.4923 294.318 17.9077C295.672 15.2821 297.375 13.2718 299.426 11.8769C301.518 10.482 303.918 9.78461 306.626 9.78461C308.882 9.78461 311.057 10.4 313.149 11.6308C315.282 12.8205 317.026 14.5641 318.38 16.8615C319.775 19.159 320.472 21.9897 320.472 25.3538C320.472 28.1026 320 30.6667 319.057 33.0462C318.113 35.3846 316.8 37.4359 315.118 39.2C313.477 40.9231 311.57 42.2769 309.395 43.2615C307.262 44.2051 304.985 44.6769 302.564 44.6769ZM275.918 56L285.026 10.4H298.134L297.211 14.9538L294.934 27.2615L293.149 39.4462L289.826 56H275.918ZM300.288 33.7231C301.518 33.7231 302.585 33.4154 303.488 32.8C304.39 32.1436 305.088 31.241 305.58 30.0923C306.113 28.9436 306.38 27.5897 306.38 26.0308C306.38 24.4718 305.929 23.2 305.026 22.2154C304.164 21.2308 302.954 20.7385 301.395 20.7385C300.205 20.7385 299.139 21.0667 298.195 21.7231C297.293 22.3385 296.575 23.2205 296.041 24.3692C295.549 25.518 295.303 26.8718 295.303 28.4308C295.303 29.9897 295.734 31.2615 296.595 32.2462C297.498 33.2308 298.729 33.7231 300.288 33.7231Z" fill="#08182E"/>
</g>
<defs>
<filter id="filter0_d_1_193" x="0" y="0" width="324.472" height="64" filterUnits="userSpaceOnUse" color-interpolation-filters="sRGB">
<feFlood flood-opacity="0" result="BackgroundImageFix"/>
<feColorMatrix in="SourceAlpha" type="matrix" values="0 0 0 0 0 0 0 0 0 0 0 0 0 0 0 0 0 0 127 0" result="hardAlpha"/>
<feOffset dy="4"/>
<feGaussianBlur stdDeviation="2"/>
<feComposite in2="hardAlpha" operator="out"/>
<feColorMatrix type="matrix" values="0 0 0 0 0 0 0 0 0 0 0 0 0 0 0 0 0 0 0.25 0"/>
<feBlend mode="normal" in2="BackgroundImageFix" result="effect1_dropShadow_1_193"/>
<feBlend mode="normal" in="SourceGraphic" in2="effect1_dropShadow_1_193" result="shape"/>
</filter>
</defs>
</svg>
